<svg xmlns="http://www.w3.org/2000/svg" width="175" height="74" viewBox="0 0 46.302085 19.579166">
  <path d="M30.023 1.852L28.7 3.175h.529V9.79h2.245v-.63l.629.629h1.095V8.202h-2.381V3.175h.529z" fill="#9acc59"/>
  <path d="M27.377 3.44h1.587v6.614h2.646v-.529l1.323 1.323-1.323 1.323v-.53h-4.233z" fill="#2ba9e0"/>
  <path d="M7.78 5.447q0 .426-.148.836-.15.405-.427.682-.38.375-.848.567-.465.192-1.16.192h-1.02v2.069H2.54v-6.35h2.695q.606 0 1.02.106.417.103.737.312.384.251.584.643.205.393.205.943zm-1.692.038q0-.268-.145-.46-.145-.196-.337-.273-.256-.103-.499-.111-.243-.013-.648-.013h-.282V6.53h.47q.417 0 .686-.051.273-.051.456-.205.158-.136.226-.324.073-.192.073-.465zm7.658 4.308h-1.693l-.439-1.284H9.26l-.44 1.284H7.17l2.346-6.35H11.4zm-2.529-2.448l-.78-2.278-.78 2.278zM17.7 5.387q0-.239-.099-.41-.098-.17-.337-.268-.166-.068-.388-.08-.222-.018-.516-.018h-.593v1.71h.504q.392 0 .656-.038.265-.039.444-.175.17-.132.247-.29.081-.162.081-.43zm2.554 4.406h-2l-1.732-2.329h-.755v2.329h-1.629v-6.35h2.747q.563 0 .968.064t.759.277q.358.213.567.554.213.337.213.849 0 .703-.328 1.147-.324.444-.93.738zm6.733 0h-1.693l-.44-1.284H22.5l-.439 1.284h-1.65l2.345-6.35h1.885zm-2.53-2.448l-.78-2.278-.78 2.278z" fill="#2ba9e0"/><path d="M38.297 9.793h-4.593v-6.35h4.593V4.67h-2.964v1.096h2.75v1.228h-2.75v1.57h2.964zm5.162 0h-4.58v-6.35h1.637v5.121h2.943z" fill="#9acc59"/>
  <path d="M5.653 14.331H4.496v2.988h-.955v-2.988H2.384v-.716h3.269zM8.305 14.75q0-.14-.057-.24-.057-.1-.197-.156-.097-.04-.226-.048-.13-.01-.301-.01h-.346v.998h.294q.228 0 .383-.023.154-.022.258-.102.1-.077.145-.169.047-.094.047-.251zm1.49 2.569H8.628l-1.01-1.358h-.44v1.358h-.95v-3.704H7.83q.328 0 .565.037.236.037.442.162.21.124.331.323.125.197.125.495 0 .41-.192.67-.189.258-.542.43zM13.641 17.319h-.987l-.257-.749h-1.373l-.256.749h-.963l1.368-3.704h1.1zm-1.475-1.428l-.455-1.328-.456 1.328zM17.547 17.319h-.92l-1.573-2.543v2.543h-.875v-3.704h1.142l1.35 2.122v-2.122h.876zM21.463 16.155q0 .547-.465.89-.463.341-1.26.341-.46 0-.803-.08-.34-.082-.64-.206v-.888h.105q.296.236.662.363.368.127.707.127.087 0 .229-.015.141-.015.23-.05.11-.044.18-.112.072-.067.072-.199 0-.121-.104-.209-.102-.09-.301-.136-.21-.05-.443-.092-.231-.045-.435-.112-.468-.152-.675-.41-.204-.262-.204-.648 0-.517.463-.843.465-.328 1.194-.328.366 0 .722.072.358.07.62.176v.854h-.103q-.224-.18-.55-.299-.323-.122-.661-.122-.12 0-.24.018-.116.015-.226.06-.097.037-.166.114-.07.074-.07.172 0 .146.112.226.112.077.423.142l.39.082q.19.04.406.11.425.139.627.38.204.239.204.622zM24.792 17.319H22.12v-3.704h.955v2.988h1.717zM28.787 17.319h-.988l-.256-.749H26.17l-.256.749h-.963l1.368-3.704h1.1zm-1.475-1.428l-.456-1.328-.455 1.328zM32.223 14.331h-1.157v2.988h-.956v-2.988h-1.156v-.716h3.269zM34.8 17.319h-2.17v-.657h.608v-2.39h-.607v-.657H34.8v.656h-.607v2.391h.607zM39.186 15.468q0 .886-.508 1.408-.507.52-1.403.52-.893 0-1.4-.52-.508-.522-.508-1.408 0-.893.508-1.41.507-.52 1.4-.52.89 0 1.4.52.51.517.51 1.41zm-1.266.938q.139-.17.206-.398.067-.231.067-.542 0-.334-.077-.568-.077-.233-.201-.378-.127-.149-.294-.216-.164-.067-.343-.067-.182 0-.344.064-.159.065-.293.214-.124.14-.204.386-.077.244-.077.567 0 .331.074.565.078.231.202.378.124.147.291.216.167.07.35.07.185 0 .352-.07.166-.072.29-.221zM43.28 17.319h-.92l-1.572-2.543v2.543h-.876v-3.704h1.142l1.351 2.122v-2.122h.876z" fill="#9e9e9e"/>
</svg>