<?xml version="1.0"?>
<svg version="1.0" xmlns="http://www.w3.org/2000/svg" xmlns:xlink="http://www.w3.org/1999/xlink" width="56" height="70" transform="scale(2,2) translate(0,0)">
 <g transform="translate(-37,-47)" fill="#2BA9E0" stroke="#0B89C0" stroke-width="0.5">
  <path id='l' d="m 51.132478,74.653996 h 0.503156 l 0.503156,0.525032 q -3.193947,4.987809 -6.825423,4.987809 -1.225075,0 -1.990748,-0.48128 Q 42.578823,79.204278 42.097543,77.782314 41.63814,76.338475 41.63814,73.84457 l 0.328145,-16.932299 q 0,-3.30333 -0.24064,-4.484653 -0.06563,-0.284392 -0.24064,-0.503156 -0.153134,-0.218763 -0.437527,-0.350022 -0.262516,-0.131258 -0.525032,-0.218763 -0.24064,-0.109382 -0.656291,-0.153135 -0.415651,-0.04375 -0.678167,-0.06563 -0.24064,-0.02188 -0.700043,-0.04375 -0.48128,-0.02188 -0.656291,-0.02188 v -1.028188 l 0.284392,-0.218764 7.372332,-0.896931 0.284393,0.306269 q -0.04375,1.750109 -0.350022,8.488026 -0.284392,6.716042 -0.284392,10.347517 0,0.590661 -0.02188,1.465715 0,0.853178 -0.02188,1.421963 0,0.546909 0,1.290705 0,0.743797 0.04375,1.225076 0.06563,0.48128 0.131258,1.050065 0.08751,0.546909 0.24064,0.896931 0.175011,0.350022 0.41565,0.678167 0.24064,0.306269 0.568786,0.48128 0.350021,0.153134 0.787549,0.175011 0.700043,0 1.443839,-0.371898 0.765672,-0.371898 1.2032,-0.700044 0.437527,-0.350021 1.203199,-1.028188 z"/>
</g>
<g transform="translate(-25,-47)" fill="#9ACC59" stroke="#7AAC39" stroke-width="0.5">
 <use xlink:href="#l"/>
</g>
</svg>
